<svg id="Layer_1" data-name="Layer 1" xmlns="http://www.w3.org/2000/svg" width="703.41" height="676.65" viewBox="0 0 703.41 676.65"><defs><style>.cls-1{fill:#f0bb08;}.cls-2{fill:#fff;}</style></defs><title>bnb_logo_freelogovectors.net</title><path class="cls-1" d="M327.23,41c48.89-9.56,99.11-2,146.75,10.44C556.8,74.58,630.86,128.71,676.24,202c29.3,46.16,45.59,99.89,50,154.19,2.73,46.09-5.48,92.51-21.53,135.66C676.14,567.06,619,630.32,548.59,668.87c-71.54,38.52-156.42,54-236.57,38.49C238.6,694.75,169.13,658.6,117.63,604.57,53,538.78,18.36,444.91,23.87,352.94c4-31.23,9.52-62.51,21-92,32.13-86,101.09-157,185.33-193A361.37,361.37,0,0,1,327.23,41ZM258.87,215a75.76,75.76,0,0,0-7.94,5.81c15,8.18,29.84,16.56,44.67,25,25.78-14.87,52.07-28.86,77.82-43.76,22.91,12.37,45.52,25.34,68.22,38.05,4.5,2.09,9.5,6.35,14.53,3,13.48-6.92,26.43-14.9,39.74-22.1a56,56,0,0,0-12.4-8.85c-36.93-20.14-73.26-41.39-110.33-61.26C335.31,172.63,297,193.58,258.87,215Zm-86.67,49c.21,17.1-.1,34.2.27,51.3,15.41,7.77,29.81,17.4,45.59,24.46.27-16.93-.11-33.89.3-50.82,14.73-8.07,29.36-16.39,44-24.63-14-9.87-29.26-18.05-44.6-25.55C202,245.92,187.34,255.49,172.2,263.93Zm354.46-24.12c-14.16,7.84-28.59,15.34-42,24.39,15,8.11,29.64,16.73,44.67,24.64.58,17,.07,34,.41,50.92,15.51-7.37,30-16.53,45.11-24.74.13-17.26.17-34.5,0-51.73-12.61-6.82-25-14-37.48-21C534,241.06,530.2,237.21,526.66,239.81Zm-198,24.46c15.23,7.37,29.12,17.34,44.67,24.09,15.81-5.94,29.56-16.28,44.63-23.82-13.51-10.61-29.26-18.45-44.63-25.81A460.61,460.61,0,0,0,328.62,264.27Zm-78.8,43.35c.27,17.1-.24,34.2.4,51.3,26.16,13.78,51.6,28.89,77.69,42.84.23,29,.16,58.05,0,87.08,15,8.68,29.84,18.08,45.58,25.44,15.85-6.82,30.14-16.89,45.58-24.66.07-29.06.11-58.16,0-87.22,25.85-14.83,52-29.16,78-43.69.27-17.3.41-34.56-.07-51.86-15.61-7.4-29.66-18.42-45.85-24.3-26.59,12.91-51.26,30-78.15,42-26.39-13.15-51.09-29.77-77.76-42.21C279.62,289.78,264.89,299.14,249.82,307.62Zm-77.41,43.25c-.34,46.06.06,92.12-.24,138.17,41.12,23.42,82.34,46.63,123.91,69.24.16-16.93,0-33.86.1-50.79-26-14.36-51.73-29.16-77.82-43.32-.64-29.33.37-58.62-.57-87.92C202.55,368,187.51,359.36,172.41,350.87Zm357,26c.34,29,.24,58.08.07,87.11-26.05,14-51.53,29.12-77.71,42.84-.48,17.27-.58,34.57.13,51.83Q513,523.75,574.74,489.82c.13-46.29.54-92.59-.24-138.88C559.64,359.9,544.23,367.84,529.39,376.83ZM250.05,394.5c-.3,17,0,33.92-.27,50.92,15.24,8.55,30.08,18,46.06,25.21-.81-16.8,1.79-34.06-1.18-50.55C280.43,410.51,264.72,403.32,250.05,394.5Zm202.2,25.17c-.57,17.13-.3,34.26-.13,51.43,15.07-8.14,29.8-16.9,44.94-25,.47-17.17.17-34.33.2-51.5C482.22,402.88,467.39,411.56,452.25,419.67ZM328.18,525.8c-.31,16.93-.07,33.9-.21,50.86,15,8.55,29.74,17.91,45.42,25.27,16-6.49,30.17-16.93,45.68-24.56,0-17.2.41-34.4-.27-51.57-15,8.72-30.07,17.51-45.48,25.55C358.35,542.67,343.21,534.32,328.18,525.8Z" transform="translate(-23.3 -36.68)"/><path class="cls-2" d="M258.87,215c38.08-21.39,76.44-42.34,114.31-64.13,37.07,19.87,73.4,41.12,110.33,61.26a56,56,0,0,1,12.4,8.85c-13.31,7.2-26.26,15.18-39.74,22.1-5,3.38-10-.88-14.53-3-22.7-12.71-45.31-25.68-68.22-38.05-25.75,14.9-52,28.89-77.82,43.76-14.83-8.45-29.7-16.83-44.67-25A75.76,75.76,0,0,1,258.87,215Z" transform="translate(-23.3 -36.68)"/><path class="cls-2" d="M172.2,263.93c15.14-8.44,29.81-18,45.59-25.24,15.34,7.5,30.57,15.68,44.6,25.55-14.67,8.24-29.3,16.56-44,24.63-.41,16.93,0,33.89-.3,50.82-15.78-7.06-30.18-16.69-45.59-24.46C172.1,298.13,172.41,281,172.2,263.93Z" transform="translate(-23.3 -36.68)"/><path class="cls-2" d="M526.66,239.81c3.54-2.6,7.36,1.25,10.67,2.46,12.44,7.07,24.87,14.2,37.48,21,.17,17.23.13,34.47,0,51.73-15.07,8.21-29.6,17.37-45.11,24.74-.34-17,.17-33.93-.41-50.92-15-7.91-29.7-16.53-44.67-24.64C498.07,255.15,512.5,247.65,526.66,239.81Z" transform="translate(-23.3 -36.68)"/><path class="cls-2" d="M328.62,264.27a460.61,460.61,0,0,1,44.67-25.54c15.37,7.36,31.12,15.2,44.63,25.81-15.07,7.54-28.82,17.88-44.63,23.82C357.74,281.61,343.85,271.64,328.62,264.27Z" transform="translate(-23.3 -36.68)"/><path class="cls-2" d="M249.82,307.62c15.07-8.48,29.8-17.84,45.44-25.24,26.67,12.44,51.37,29.06,77.76,42.21,26.89-12,51.56-29.13,78.15-42,16.19,5.88,30.24,16.9,45.85,24.3.48,17.3.34,34.56.07,51.86-26,14.53-52.17,28.86-78,43.69.14,29.06.1,58.16,0,87.22-15.44,7.77-29.73,17.84-45.58,24.66-15.74-7.36-30.54-16.76-45.58-25.44.13-29,.2-58,0-87.08-26.09-13.95-51.53-29.06-77.69-42.84C249.58,341.82,250.09,324.72,249.82,307.62Z" transform="translate(-23.3 -36.68)"/><path class="cls-2" d="M172.41,350.87c15.1,8.49,30.14,17.14,45.38,25.38.94,29.3-.07,58.59.57,87.92,26.09,14.16,51.83,29,77.82,43.32-.07,16.93.06,33.86-.1,50.79-41.57-22.61-82.79-45.82-123.91-69.24C172.47,443,172.07,396.93,172.41,350.87Z" transform="translate(-23.3 -36.68)"/><path class="cls-2" d="M529.39,376.83c14.84-9,30.25-16.93,45.11-25.89.78,46.29.37,92.59.24,138.88q-61.68,34-122.86,68.79c-.71-17.26-.61-34.56-.13-51.83,26.18-13.72,51.66-28.82,77.71-42.84C529.63,434.91,529.73,405.85,529.39,376.83Z" transform="translate(-23.3 -36.68)"/><path class="cls-2" d="M250.05,394.5c14.67,8.82,30.38,16,44.61,25.58,3,16.49.37,33.75,1.18,50.55-16-7.2-30.82-16.66-46.06-25.21C250.05,428.42,249.75,411.46,250.05,394.5Z" transform="translate(-23.3 -36.68)"/><path class="cls-2" d="M452.25,419.67c15.14-8.11,30-16.79,45-25,0,17.17.27,34.33-.2,51.5-15.14,8.07-29.87,16.83-44.94,25C452,453.93,451.68,436.8,452.25,419.67Z" transform="translate(-23.3 -36.68)"/><path class="cls-2" d="M328.18,525.8c15,8.52,30.17,16.87,45.14,25.55,15.41-8,30.44-16.83,45.48-25.55.68,17.17.3,34.37.27,51.57-15.51,7.63-29.67,18.07-45.68,24.56C357.71,594.57,343,585.21,328,576.66,328.11,559.7,327.87,542.73,328.18,525.8Z" transform="translate(-23.3 -36.68)"/></svg>