<svg id="Calque_1" data-name="Calque 1" xmlns="http://www.w3.org/2000/svg" viewBox="0 0 483 174.3"><path d="M90.3,174.3H84.2a7.4,7.4,0,0,0-2.1-.1H80.8l-6.9-.8c-2.7-.5-5.3-1-8-1.7l-.4-.2v-.4l.6-11.3c.1-1.7.2-3.4.4-5.2s.6-4.9.9-7.3,1.2-6.9,2-10.3c1.4-6.2,3.2-12.3,5.2-18.3a80.1,80.1,0,0,1,3.2-8.1c.1-.1.1-.3.2-.4a1.8,1.8,0,0,0-.9-2.4h-.2l-5.1-3.1-.6-.3A152.7,152.7,0,0,1,56,119.2a162.4,162.4,0,0,1-17.3,12.6c-5.6,3.5-16.4,9.3-18.9,10l-.4-.5L16,137.1A74.7,74.7,0,0,1,5.7,117.8a84.2,84.2,0,0,1-4.1-14.9C1.1,99.8.7,96.7.5,93.6.4,92.3.3,91.1.3,89.9V84.5c.1-2.5.2-4.9.5-7.3s.9-6.3,1.6-9.4a88,88,0,0,1,9-23.3A85.7,85.7,0,0,1,57.5,5.4,72.2,72.2,0,0,1,72,1.5a64.2,64.2,0,0,1,7.5-1l4-.3h7.7l4,.3a64.8,64.8,0,0,1,9.7,1.4,86.6,86.6,0,0,1,66.4,62,81.2,81.2,0,0,1,2.3,10.9,34.3,34.3,0,0,1,.6,5.5,6.2,6.2,0,0,0,.1,1.9V92.7a1.7,1.7,0,0,0-.1,1v.8l-.3,3.5c-.4,2.8-.9,5.6-1.5,8.3a83.5,83.5,0,0,1-6.3,18.2c-9.5,19.8-24.3,34.2-44.5,42.9a87.1,87.1,0,0,1-18,5.5c-3.3.6-6.6,1-9.9,1.3H92.4A7.4,7.4,0,0,0,90.3,174.3ZM92,13.9a4.3,4.3,0,0,1-.2,1.1,4.8,4.8,0,0,1-2.3,3.1l-1.8.7-1,.2.8.2,1.6.5A4.7,4.7,0,0,1,91.4,22c.2.4.3.9.5,1.4s.1.6.2,1,.3-1.3.5-1.9a5.1,5.1,0,0,1,3.9-3.3h.9l-1.6-.5a5.2,5.2,0,0,1-3.3-3.3l-.3-1.3v-.4H92ZM144.5,114v-.4c-.2.1-.2.2-.2.4a13.9,13.9,0,0,1-.6,1.9,5,5,0,0,1-3.1,2.9l-.9.2h-.3c-.1,0-.2,0-.3.2h1.1a4.9,4.9,0,0,1,3.5,2.9,13.3,13.3,0,0,1,.5,1.9l.3.4.6-1.7a4.1,4.1,0,0,1,3-3.1l1.3-.5c.1-.1.1-.2.3-.3h-.6a4.9,4.9,0,0,1-4.1-3.3C144.8,115.1,144.7,114.5,144.5,114ZM42.8,81.1a.6.6,0,0,0,.7-.1h-.7l-1.5-.2a5.4,5.4,0,0,1-3.7-2.5,13,13,0,0,1-.8-1.7l-.6-2.2c.1-.2,0-.4-.2-.6a.8.8,0,0,0,0,.7c-.1.4-.1.8-.2,1.2a6.1,6.1,0,0,1-4.7,4.9l-1.8.4c-.1,0-.2-.1-.3.1l.3.2,1.8.5,1.7.5a3.6,3.6,0,0,1,2,2,5.8,5.8,0,0,1,.5,1.4,17.4,17.4,0,0,1,.5,2.2l.3.3v-.8a6.5,6.5,0,0,1,3.7-5.2,4.4,4.4,0,0,1,1.6-.6Zm77.5-45-.8.3a38.5,38.5,0,0,0-6.6,2.8,78.6,78.6,0,0,0-22,15.4A80.6,80.6,0,0,0,76.3,74.3l-.6,1.1a4.9,4.9,0,0,1-3.5,2.4l-2.8.5A29.7,29.7,0,0,0,51.6,88.9c-.1.1-.2.2,0,.4l.9-.4a26.7,26.7,0,0,1,4-1.3,22.6,22.6,0,0,1,8.6-.6,26.7,26.7,0,0,1,10.5,4.2,2.2,2.2,0,0,1,.9,3.1c-.9,2.2-1.8,4.4-2.6,6.6-.1.2-.1.4-.2.5l6.3,4.2,1.7-1.7,1.7-1.7,1.8-1.7A14.5,14.5,0,0,1,87,98.8l.5.2,2.2,1.3a22.7,22.7,0,0,1,9.5,12.6,41,41,0,0,1,1.2,7,5.3,5.3,0,0,0,.2,1.6l.3-.6.6-1.5a37.2,37.2,0,0,0,2.2-10.3,31.7,31.7,0,0,0-.9-9.7c-.2-1-.5-2.1-.8-3.1a2.8,2.8,0,0,1,.5-2.5l.6-.9A80.9,80.9,0,0,0,116,69.3a86.5,86.5,0,0,0,3.7-15c.3-2.5.6-4.9.7-7.5s.1-4.1.1-6.2S120.4,37.7,120.3,36.1ZM55.6,53.8a9.1,9.1,0,0,0,.8-1.8,46.4,46.4,0,0,0,1.7-6.4A3.3,3.3,0,0,1,61,42.9L68.7,41c.1,0,.2-.1.1-.3l-.5-.2a42.3,42.3,0,0,0-5.7-1.9l-2.2-.5a2.5,2.5,0,0,1-2-1.8l-.3-1.1c-.6-2.5-1.3-5-1.9-7.5v-.4h-.5c-.1.2-.1.2-.1.3-.6,2.2-1.1,4.3-1.6,6.5-.2.6-.3,1.3-.5,1.9a2.8,2.8,0,0,1-2.1,2.1l-.5.2c-2.6.5-5.1,1.2-7.6,1.9l-.5.2.3.2a27.5,27.5,0,0,0,6.9,2.1,7,7,0,0,1,1.4.3,3.7,3.7,0,0,1,2,1.9,8.3,8.3,0,0,1,.4,1.5,55.3,55.3,0,0,0,1.8,7A.8.8,0,0,0,55.6,53.8Zm53.6,90.1v-1a18.5,18.5,0,0,1,.7-4.1A7.2,7.2,0,0,1,115,134a13.4,13.4,0,0,1,3.5-.5h1.1l-.6-.3-1.2-.5a31.6,31.6,0,0,0-5.2-1.7h-.1a2.4,2.4,0,0,1-1.9-2.1c-.4-2.1-1-4.1-1.5-6.1l-.2-.2-.2.2a22.4,22.4,0,0,0-1.6,5l-.3,1.4a3.2,3.2,0,0,1-1.9,1.9h-.7l-5.5,1.4-.5.2.4.3a19.6,19.6,0,0,0,3.4,1.2l2.4.5a3,3,0,0,1,2.4,2.2,3.6,3.6,0,0,1,.2,1c.5,1.8,1,3.7,1.4,5.5A.8.8,0,0,0,109.2,143.9Zm20.5-60.8,1.5.2a6.3,6.3,0,0,1,5.1,4.7,5.9,5.9,0,0,1,.2,1.3,5.1,5.1,0,0,1,.2,1.3,1.3,1.3,0,0,0,.3-.7,12.1,12.1,0,0,0,.5-1.8,10.7,10.7,0,0,1,.7-1.9,2.9,2.9,0,0,1,1.9-1.8l1.2-.4,2.9-.7h.4l-.4-.2-2.3-.5-2-.6a3.3,3.3,0,0,1-1.7-1.8,8.8,8.8,0,0,1-.5-1.5A25,25,0,0,0,137,76c0-.1,0-.3-.2-.3V76c-.2.7-.3,1.4-.5,2.1l-.5,1.7a3.4,3.4,0,0,1-2.2,2.2l-1.1.3-2.2.5Zm19.6-38.5-1.1-.3a5.1,5.1,0,0,1-4.2-4.1,3.1,3.1,0,0,0-.2-.8c-.1.4-.1.7-.2,1a4.3,4.3,0,0,1-2.3,3.1,7,7,0,0,1-2,.8l-.9.4h.8a4.8,4.8,0,0,1,3.8,2.6,12.9,12.9,0,0,1,.7,2.1c.1.1.1.3.3.2a1.3,1.3,0,0,1,.1-.6,4.4,4.4,0,0,1,2.7-3.7l1.5-.6Z" transform="translate(0 0)" style="fill:#30c"/><path d="M0,84.5H.3v5.4H0Z" transform="translate(0 0)" style="fill:#ab96ea"/><path d="M89.5.1h0Z" transform="translate(0 0)" style="fill:#9b82e5"/><path d="M82.1,174.2a7.4,7.4,0,0,1,2.1.1H82.1Z" transform="translate(0 0)" style="fill:#6d49da"/><path d="M90.3,174.3a7.4,7.4,0,0,1,2.1-.1H90.3Z" transform="translate(0 0)" style="fill:#6e49da"/><path d="M174.2,80.3h.1v1.9A6.2,6.2,0,0,1,174.2,80.3Z" transform="translate(0 0)" style="fill:#a18ae7"/><path d="M85.2,0H83.5V0Z" transform="translate(0 0)" style="fill:#d0c4f3"/><path d="M89.5.1h1.7V.2Z" transform="translate(0 0)" style="fill:#d6cbf4"/><path d="M82.1,174.2h0Z" transform="translate(0 0)" style="fill:#c2b3ef"/><path d="M92.4,174.3h0Z" transform="translate(0 0)" style="fill:#c2b3ef"/><path d="M174.2,93.7a1.7,1.7,0,0,1,.1-1v1Z" transform="translate(0 0)" style="fill:#886ae1"/><path d="M174.2,93.7h.1v.8h-.1Z" transform="translate(0 0)" style="fill:#ccbff2"/><path d="M120.3,36.1c.1,1.6.2,3,.2,4.5s0,4.2-.1,6.2-.4,5-.7,7.5a86.5,86.5,0,0,1-3.7,15,80.9,80.9,0,0,1-12.9,23.6l-.6.9a2.8,2.8,0,0,0-.5,2.5c.3,1,.6,2.1.8,3.1a31.7,31.7,0,0,1,.9,9.7,37.2,37.2,0,0,1-2.2,10.3l-.6,1.5-.3.6a5.3,5.3,0,0,1-.2-1.6,41,41,0,0,0-1.2-7,22.7,22.7,0,0,0-9.5-12.6L87.5,99l-.5-.2a14.5,14.5,0,0,0-1.8,1.7l-1.8,1.7-1.7,1.7L80,105.6l-6.3-4.2c.1-.1.1-.3.2-.5.8-2.2,1.7-4.4,2.6-6.6a2.2,2.2,0,0,0-.9-3.1A26.7,26.7,0,0,0,65.1,87a22.6,22.6,0,0,0-8.6.6,26.7,26.7,0,0,0-4,1.3l-.9.4c-.2-.2-.1-.3,0-.4A29.7,29.7,0,0,1,69.4,78.3l2.8-.5a4.9,4.9,0,0,0,3.5-2.4l.6-1.1A80.6,80.6,0,0,1,90.9,54.6a78.6,78.6,0,0,1,22-15.4,38.5,38.5,0,0,1,6.6-2.8Zm-9.7,22v-.8a6.1,6.1,0,0,0-.8-2.6,3.2,3.2,0,0,0-3.1-1.6,8.6,8.6,0,0,0-2.1.7L102,55.5a15.5,15.5,0,0,0-5,6.1,19.5,19.5,0,0,0-1.6,6.3,8.1,8.1,0,0,0,.1,2.2,3.4,3.4,0,0,0,4.2,2.6l1.9-.7a18,18,0,0,0,3.9-2.9,17,17,0,0,0,4.9-9.1A4,4,0,0,0,110.6,58.1Z" transform="translate(0 0)" style="fill:#fefeff"/><path d="M55.6,53.8a.8.8,0,0,1-.1-.4,55.3,55.3,0,0,1-1.8-7,8.3,8.3,0,0,0-.4-1.5,3.7,3.7,0,0,0-2-1.9,7,7,0,0,0-1.4-.3A27.5,27.5,0,0,1,43,40.6l-.3-.2.5-.2c2.5-.7,5-1.4,7.6-1.9l.5-.2A2.8,2.8,0,0,0,53.4,36c.2-.6.3-1.3.5-1.9.5-2.2,1-4.3,1.6-6.5,0-.1,0-.1.1-.3h.5v.4c.6,2.5,1.3,5,1.9,7.5l.3,1.1a2.5,2.5,0,0,0,2,1.8l2.2.5a42.3,42.3,0,0,1,5.7,1.9l.5.2c.1.2,0,.3-.1.3L61,42.9a3.3,3.3,0,0,0-2.9,2.7A46.4,46.4,0,0,1,56.4,52,9.1,9.1,0,0,1,55.6,53.8Z" transform="translate(0 0)" style="fill:#fcfcfe"/><path d="M109.2,143.9a.8.8,0,0,1-.8-.5c-.4-1.8-.9-3.7-1.4-5.5a3.6,3.6,0,0,0-.2-1,3,3,0,0,0-2.4-2.2l-2.4-.5a19.6,19.6,0,0,1-3.4-1.2l-.4-.3.5-.2,5.5-1.4h.7a3.2,3.2,0,0,0,1.9-1.9l.3-1.4a22.4,22.4,0,0,1,1.6-5l.2-.2.2.2c.5,2,1.1,4,1.5,6.1a2.4,2.4,0,0,0,1.9,2.1h.1a31.6,31.6,0,0,1,5.2,1.7l1.2.5.6.3h-1.1a13.4,13.4,0,0,0-3.5.5,7.2,7.2,0,0,0-5.1,4.8,18.5,18.5,0,0,0-.7,4.1Z" transform="translate(0 0)" style="fill:#fbfbfe"/><path d="M129.7,83.1l.5-.3,2.2-.5,1.1-.3a3.4,3.4,0,0,0,2.2-2.2l.5-1.7c.2-.7.3-1.4.5-2.1v-.3c.2,0,.2.2.2.3a25,25,0,0,1,.7,2.6,8.8,8.8,0,0,0,.5,1.5,3.3,3.3,0,0,0,1.7,1.8l2,.6,2.3.5.4.2h-.4l-2.9.7-1.2.4a2.9,2.9,0,0,0-1.9,1.8,10.7,10.7,0,0,0-.7,1.9,12.1,12.1,0,0,1-.5,1.8,1.3,1.3,0,0,1-.3.7,5.1,5.1,0,0,0-.2-1.3,5.9,5.9,0,0,0-.2-1.3,6.3,6.3,0,0,0-5.1-4.7Z" transform="translate(0 0)" style="fill:#faf8fe"/><path d="M36.2,74.4l.6,2.2a13,13,0,0,0,.8,1.7,5.4,5.4,0,0,0,3.7,2.5l1.5.2h0l-1.4.5a4.4,4.4,0,0,0-1.6.6,6.5,6.5,0,0,0-3.7,5.2v.8l-.3-.3a17.4,17.4,0,0,0-.5-2.2,5.8,5.8,0,0,0-.5-1.4,3.6,3.6,0,0,0-2-2l-1.7-.5-1.8-.5-.3-.2c.1-.2.2-.1.3-.1l1.8-.4a6.1,6.1,0,0,0,4.7-4.9c.1-.4.1-.8.2-1.2Z" transform="translate(0 0)" style="fill:#faf9fe"/><path d="M139.7,119l.9-.2a5,5,0,0,0,3.1-2.9,13.9,13.9,0,0,0,.6-1.9h.2c.2.5.3,1.1.5,1.6a4.9,4.9,0,0,0,4.1,3.3h.6c-.2.1-.2.2-.3.3l-1.3.5a4.1,4.1,0,0,0-3,3.1l-.6,1.7-.3-.4a13.3,13.3,0,0,0-.5-1.9,4.9,4.9,0,0,0-3.5-2.9h-.5Z" transform="translate(0 0)" style="fill:#faf8fe"/><path d="M92.2,13.9l.3,1.3a5.2,5.2,0,0,0,3.3,3.3l1.6.5h-.9a5.1,5.1,0,0,0-3.9,3.3c-.2.6-.3,1.2-.5,1.9s-.1-.7-.2-1-.3-1-.5-1.4a4.7,4.7,0,0,0-2.3-2.3l-1.6-.5-.8-.2,1-.2,1.8-.7A4.8,4.8,0,0,0,91.8,15a4.3,4.3,0,0,0,.2-1.1h.2Z" transform="translate(0 0)" style="fill:#f9f7fd"/><path d="M149.3,44.6l-1,.2-1.5.6a4.4,4.4,0,0,0-2.7,3.7,1.3,1.3,0,0,0-.1.6c-.2.1-.2-.1-.3-.2a12.9,12.9,0,0,0-.7-2.1,4.8,4.8,0,0,0-3.8-2.6h-.8l.9-.4a7,7,0,0,0,2-.8,4.3,4.3,0,0,0,2.3-3.1c.1-.3.1-.6.2-1a3.1,3.1,0,0,1,.2.8,5.1,5.1,0,0,0,4.2,4.1Z" transform="translate(0 0)" style="fill:#f9f7fd"/><path d="M36.2,74.4H36a.8.8,0,0,1,0-.7C36.2,74,36.3,74.2,36.2,74.4Z" transform="translate(0 0)" style="fill:#b29feb"/><path d="M139.7,119v.3h-.6c.1-.2.2-.2.3-.2Z" transform="translate(0 0)" style="fill:#b8a7ed"/><path d="M42.8,81.1h.7A.6.6,0,0,1,42.8,81.1Z" transform="translate(0 0)" style="fill:#a38ce8"/><path d="M92.2,13.9H92v-.4h.2Z" transform="translate(0 0)" style="fill:#977de5"/><path d="M144.5,114h-.2c0-.2,0-.3.2-.4Z" transform="translate(0 0)" style="fill:#ae9aeb"/><path d="M110.6,58.1a4,4,0,0,1-.2,1.9,17,17,0,0,1-4.9,9.1,18,18,0,0,1-3.9,2.9l-1.9.7a3.4,3.4,0,0,1-4.2-2.6,8.1,8.1,0,0,1-.1-2.2A19.5,19.5,0,0,1,97,61.6a15.5,15.5,0,0,1,5-6.1l2.6-1.7a8.6,8.6,0,0,1,2.1-.7,3.2,3.2,0,0,1,3.1,1.6,6.1,6.1,0,0,1,.8,2.6Z" transform="translate(0 0)" style="fill:#3402cc"/><path d="M218.6,106.9c-.2,1.2-.4,2.5-.5,3.9v5.5c0,4.6.1,8,.3,10a11.8,11.8,0,0,0,1.7,5.1,6.2,6.2,0,0,0,2.6,2.5,12.6,12.6,0,0,0,4.6.7,16,16,0,0,0,5.3-.7,6.8,6.8,0,0,0,2.8-2.8,12.8,12.8,0,0,0,1.7-5.7c.2-2.3.4-6,.4-11.3v-5a29.6,29.6,0,0,0-.2-3.4c-.1-.9-.3-1.7-.4-2.3s-.3-1.5-.5-2.3a7.4,7.4,0,0,0-2-3.3,20.2,20.2,0,0,0-4-2.8,52.6,52.6,0,0,0-4.9-3l-5.6-3-5.4-3.2a33.6,33.6,0,0,1-4.4-3.3A14.7,14.7,0,0,1,207,79a15.1,15.1,0,0,1-2.1-5.1,61.9,61.9,0,0,1-1.1-8c-.2-3.3-.4-7.4-.4-12.5s.5-11.5,1.4-14.8a18.1,18.1,0,0,1,4.7-8.1,18,18,0,0,1,6.9-3.8,44.7,44.7,0,0,1,11.1-1.1c5.7,0,9.9.6,12.8,1.6a16.8,16.8,0,0,1,6.8,4.2,16.4,16.4,0,0,1,3.5,7.4,62.9,62.9,0,0,1,.9,12.3c0,3.3-.1,6.1-.3,8.2a22,22,0,0,1-.8,5.3H236.5a18.5,18.5,0,0,0,.5-3.8c.1-1.6.1-3.5.1-5.9a47.7,47.7,0,0,0-.6-8.9,9.2,9.2,0,0,0-2-4.7,5.4,5.4,0,0,0-2.6-1.6,16.3,16.3,0,0,0-4.4-.4,15.6,15.6,0,0,0-4.4.5,5.4,5.4,0,0,0-2.5,1.9,10.3,10.3,0,0,0-1.7,4.5,62.8,62.8,0,0,0-.5,9.1v5.9c0,1.6.1,2.8.1,3.8a14.5,14.5,0,0,0,.4,2.5l.6,2.1a11.9,11.9,0,0,0,1.9,3.1,17.4,17.4,0,0,0,3.9,2.9,53.2,53.2,0,0,0,8,4.4,86.1,86.1,0,0,1,9,4.9,53.6,53.6,0,0,1,4.9,3.4,15.7,15.7,0,0,1,3,3.8,18.5,18.5,0,0,1,1.3,2.9,14.3,14.3,0,0,1,.9,3.7c.1,1.6.3,3.6.3,6.1s.1,5.6.1,9.5a102.4,102.4,0,0,1-.4,10.4,44.2,44.2,0,0,1-1,7.4,25.2,25.2,0,0,1-1.5,5.2,37.5,37.5,0,0,1-2.1,4,13.6,13.6,0,0,1-7,5.5c-3.2,1.3-7.8,1.9-13.7,1.9a41.6,41.6,0,0,1-11.9-1.4,12.4,12.4,0,0,1-6.9-5.5,33.5,33.5,0,0,1-2.1-3.6,22.6,22.6,0,0,1-1.5-4.4c-.3-1.7-.6-3.7-.8-6s-.3-5.1-.3-8.5.1-5.1.3-7.1a53.3,53.3,0,0,1,.7-5.3Z" transform="translate(0 0)" style="fill:#fff"/><path d="M274.1,146.7V41.8H256.7V27.7h51V41.8H290.5V146.7Z" transform="translate(0 0)" style="fill:#fff"/><path d="M324.9,114.3l-3.1,32.4H305.3l13.9-119h27.7l13,119H343.1l-3.2-32.4m0,0L334.7,56c-.2-2.4-.5-4.8-.7-7.1s-.5-4.7-.7-7.1H332c-.3,2.4-.5,4.8-.8,7.1s-.5,4.7-.7,7.1l-5.6,58.3" transform="translate(0 0)" style="fill:#fff"/><path d="M385.4,114.3l-3.1,32.4H365.8l13.9-119h27.7l13,119H403.5l-3.1-32.4m0,0L395.2,56c-.2-2.4-.5-4.8-.7-7.1s-.5-4.7-.8-7.1h-1.3c-.2,2.4-.5,4.8-.7,7.1s-.5,4.7-.7,7.1l-5.6,58.3" transform="translate(0 0)" style="fill:#fff"/><path d="M466.2,146.7a8.8,8.8,0,0,1-.9-2,12.3,12.3,0,0,1-.7-2.9c-.1-1.3-.3-3-.5-5.1s-.4-5-.7-8.6-.5-8-.8-12-.8-8-1.4-12-1.4-5.4-2.5-6.3-2.8-1.4-5.2-1.4h-7.8v50.3H429.4V27.7H459c4.3,0,7.6.4,10,1.3a15.9,15.9,0,0,1,6.1,4.2,20.2,20.2,0,0,1,2.9,4.1,25.3,25.3,0,0,1,1.9,5.5,46,46,0,0,1,1,7.3c.2,2.7.3,6,.3,9.6s-.1,7-.2,9.5a57.4,57.4,0,0,1-.6,6.7,34.8,34.8,0,0,1-1.1,4.6,26.9,26.9,0,0,1-1.2,3.4A11.3,11.3,0,0,1,475,88a12.2,12.2,0,0,1-3.8,2.2V91a10.2,10.2,0,0,1,3.6,2.9c1.2,1.4,2,3.8,2.5,7,.9,5.5,1.6,11,2.1,16.6s1.1,11.5,1.4,17.5a60.7,60.7,0,0,0,.9,6.2A26.2,26.2,0,0,0,483,146v.7ZM453.1,83.6a14.5,14.5,0,0,0,5.5-.8,6.7,6.7,0,0,0,3.7-3.4,9.1,9.1,0,0,0,1.1-2.5,20,20,0,0,0,.7-3.4c.2-1.4.3-3.2.4-5.4s.1-4.9.1-8.4-.1-4.8-.1-6.5-.2-3.1-.3-4.2a8.8,8.8,0,0,0-.7-2.7,7.7,7.7,0,0,0-1-1.8,7.5,7.5,0,0,0-6.5-3H445.7V83.6Z" transform="translate(0 0)" style="fill:#fff"/></svg>