<svg id="Calque_1" data-name="Calque 1" xmlns="http://www.w3.org/2000/svg" xmlns:xlink="http://www.w3.org/1999/xlink" viewBox="0 0 529.3 174.3"><defs><clipPath id="clip-path" transform="translate(0 0)"><rect width="174.3" height="174.34" style="fill:none"/></clipPath></defs><g id="Staar_Logo.psd" data-name="Staar Logo.psd"><g style="clip-path:url(#clip-path)"><image id="Layer_1" data-name="Layer 1" width="4167" height="4167" transform="translate(0 0) scale(0.04)" xlink:href="logo-svg1.png"/></g></g><path d="M219.1,110.3a30.8,30.8,0,0,0-.5,4.6c-.1,1.7-.1,3.9-.1,6.5a109.5,109.5,0,0,0,.4,11.7,13.3,13.3,0,0,0,2,6,6.7,6.7,0,0,0,3,2.8,12.5,12.5,0,0,0,5.4.9c2.9,0,5-.3,6.2-.9a8.4,8.4,0,0,0,3.4-3.2,16.6,16.6,0,0,0,1.9-6.6c.3-2.7.4-7.2.4-13.3v-5.9a23.6,23.6,0,0,0-.2-4c-.1-1-.3-1.9-.4-2.7a18,18,0,0,0-.7-2.7,9.1,9.1,0,0,0-2.2-3.9,38.2,38.2,0,0,0-4.7-3.3c-1.7-1.1-3.7-2.2-5.9-3.4l-6.5-3.6-6.2-3.8a40.5,40.5,0,0,1-5.3-3.8,20,20,0,0,1-3.6-4.1,17.5,17.5,0,0,1-2.4-6,62.6,62.6,0,0,1-1.3-9.4c-.3-3.8-.5-8.7-.5-14.6,0-7.7.6-13.5,1.7-17.4a20.4,20.4,0,0,1,5.5-9.5,19.1,19.1,0,0,1,8-4.4c3.1-.9,7.4-1.3,13-1.3s11.7.6,15.1,1.8a19.9,19.9,0,0,1,7.9,5,18.7,18.7,0,0,1,4.1,8.6c.8,3.4,1.1,8.2,1.1,14.5q0,5.9-.3,9.6a28.6,28.6,0,0,1-1,6.2H240.2a25.6,25.6,0,0,0,.5-4.5c.1-1.8.1-4.1.1-6.9a64.6,64.6,0,0,0-.6-10.4,13.3,13.3,0,0,0-2.4-5.5,6,6,0,0,0-3.1-1.9,21.5,21.5,0,0,0-5.2-.5,16,16,0,0,0-5.1.6,6.4,6.4,0,0,0-2.9,2.2,11.1,11.1,0,0,0-2,5.3,68.1,68.1,0,0,0-.6,10.7v6.9c0,1.8,0,3.3.1,4.5a11.6,11.6,0,0,0,.5,2.9,23.3,23.3,0,0,0,.7,2.5,14.1,14.1,0,0,0,2.2,3.6,24.9,24.9,0,0,0,4.5,3.4,73.8,73.8,0,0,0,9.5,5.2,87.8,87.8,0,0,1,10.5,5.7,40,40,0,0,1,5.7,4,14.2,14.2,0,0,1,3.6,4.5,24.1,24.1,0,0,1,1.5,3.3,15.1,15.1,0,0,1,1,4.4,65.2,65.2,0,0,1,.4,7.1c.1,2.9.1,6.6.1,11.2s-.1,8.9-.4,12.2a76.3,76.3,0,0,1-1.2,8.7,34.5,34.5,0,0,1-1.8,6.1,41.6,41.6,0,0,1-2.4,4.7,15.9,15.9,0,0,1-8.2,6.4c-3.8,1.5-9.2,2.3-16.1,2.3a47.1,47.1,0,0,1-14-1.7,14.8,14.8,0,0,1-8.1-6.5,28.6,28.6,0,0,1-2.4-4.2,22.7,22.7,0,0,1-1.7-5.2,40.5,40.5,0,0,1-1-7q-.3-4.1-.3-9.9t.3-8.4c.2-2.4.5-4.5.7-6.2Z" transform="translate(0 0)"/><path d="M284.2,157V34H263.8V17.4h59.9V34H303.5V157Z" transform="translate(0 0)"/><path d="M365.1,157l-3.7-38H343.8l-3.7,38H320.8L337.1,17.4h32.5L384.8,157ZM355.3,50.6c-.3-2.9-.6-5.6-.8-8.3l-.9-8.3h-1.5l-.9,8.3c-.3,2.7-.6,5.4-.9,8.3L343.8,119h17.6Z" transform="translate(0 0)"/><path d="M436,157l-3.7-38H414.8l-3.7,38H391.8L408,17.4h32.6L455.7,157ZM426.2,50.6c-.2-2.9-.5-5.6-.8-8.3l-.9-8.3H423l-.9,8.3c-.3,2.7-.6,5.4-.8,8.3L414.8,119h17.5Z" transform="translate(0 0)"/><path d="M509.5,157a24,24,0,0,1-1.1-2.3,30.3,30.3,0,0,1-.7-3.5c-.2-1.4-.4-3.4-.7-6s-.4-5.8-.7-10-.6-9.4-1-14.1-.9-9.4-1.6-14.1-1.7-6.3-3-7.4-3.2-1.6-6.1-1.6h-9.1v59H466.4V17.4h34.7c5,0,8.9.5,11.7,1.6a17.9,17.9,0,0,1,7.1,4.8,23.8,23.8,0,0,1,3.4,4.9,29.7,29.7,0,0,1,2.3,6.4,48.1,48.1,0,0,1,1.2,8.6c.2,3.2.3,7,.3,11.3s-.1,8.1-.2,11.2a70.6,70.6,0,0,1-.8,7.7,29.2,29.2,0,0,1-1.2,5.4,21.9,21.9,0,0,1-1.5,4.1,13.2,13.2,0,0,1-3.6,4.8,15,15,0,0,1-4.4,2.6v.9a11.4,11.4,0,0,1,4.2,3.4c1.4,1.7,2.4,4.4,2.9,8.2,1.1,6.4,1.9,12.9,2.5,19.5s1.2,13.4,1.7,20.5q.4,4.2.9,7.2a26.9,26.9,0,0,0,1.7,5.7v.8ZM494.1,83a20,20,0,0,0,6.5-.9A8.2,8.2,0,0,0,505,78a10.8,10.8,0,0,0,1.3-2.9,24.7,24.7,0,0,0,.7-4,47,47,0,0,0,.5-6.2c0-2.6.1-5.8.1-9.9s-.1-5.6-.1-7.7-.2-3.6-.4-4.9a11.8,11.8,0,0,0-.7-3.2,19.6,19.6,0,0,0-1.2-2.1,9,9,0,0,0-7.6-3.5H485.5V83Z" transform="translate(0 0)"/></svg>